<svg width="50" height="50" viewBox="0 0 50 50" fill="none" xmlns="http://www.w3.org/2000/svg">
<path d="M2.08333 0C1.5308 0 1.0009 0.219494 0.610195 0.610195C0.219494 1.0009 0 1.5308 0 2.08333C0 2.63587 0.219494 3.16577 0.610195 3.55647C1.0009 3.94717 1.5308 4.16667 2.08333 4.16667H3.10833C3.56071 4.16745 4.00055 4.31546 4.36137 4.58833C4.72218 4.8612 4.98438 5.2441 5.10833 5.67917L11.7167 28.8042C12.0904 30.1092 12.8789 31.257 13.9629 32.0742C15.0469 32.8913 16.3675 33.3333 17.725 33.3333H36.7625C38.0119 33.3335 39.2326 32.9593 40.2672 32.2589C41.3018 31.5586 42.1027 30.5642 42.5667 29.4042L48.7083 14.0458C48.9608 13.4139 49.0547 12.7297 48.9817 12.053C48.9087 11.3764 48.671 10.728 48.2896 10.1644C47.9081 9.60084 47.3944 9.13928 46.7933 8.82008C46.1923 8.50088 45.5222 8.33376 44.8417 8.33333H10.2L9.1125 4.53333C8.73969 3.22822 7.95215 2.07994 6.86892 1.26207C5.78569 0.444195 4.46565 0.00118487 3.10833 0H2.08333ZM15.725 27.6542L11.3917 12.5H44.8375L38.6958 27.8583C38.5411 28.2445 38.2742 28.5755 37.9296 28.8087C37.5851 29.0419 37.1786 29.1666 36.7625 29.1667H17.725C17.2726 29.1659 16.8328 29.0179 16.472 28.745C16.1111 28.4721 15.849 28.0892 15.725 27.6542V27.6542Z" fill="#666666"/>
<path d="M18.75 50C19.5708 50 20.3835 49.8383 21.1418 49.5242C21.9001 49.2102 22.5891 48.7498 23.1694 48.1694C23.7498 47.5891 24.2102 46.9001 24.5242 46.1418C24.8383 45.3835 25 44.5708 25 43.75C25 42.9292 24.8383 42.1165 24.5242 41.3582C24.2102 40.5999 23.7498 39.9109 23.1694 39.3306C22.5891 38.7502 21.9001 38.2898 21.1418 37.9758C20.3835 37.6617 19.5708 37.5 18.75 37.5C17.0924 37.5 15.5027 38.1585 14.3306 39.3306C13.1585 40.5027 12.5 42.0924 12.5 43.75C12.5 45.4076 13.1585 46.9973 14.3306 48.1694C15.5027 49.3415 17.0924 50 18.75 50V50ZM18.75 45.8333C18.1975 45.8333 17.6676 45.6138 17.2769 45.2231C16.8862 44.8324 16.6667 44.3025 16.6667 43.75C16.6667 43.1975 16.8862 42.6676 17.2769 42.2769C17.6676 41.8862 18.1975 41.6667 18.75 41.6667C19.3025 41.6667 19.8324 41.8862 20.2231 42.2769C20.6138 42.6676 20.8333 43.1975 20.8333 43.75C20.8333 44.3025 20.6138 44.8324 20.2231 45.2231C19.8324 45.6138 19.3025 45.8333 18.75 45.8333Z" fill="#666666"/>
<path d="M35.4167 50C36.2374 50 37.0501 49.8383 37.8084 49.5242C38.5667 49.2102 39.2557 48.7498 39.8361 48.1694C40.4164 47.5891 40.8768 46.9001 41.1909 46.1418C41.505 45.3835 41.6667 44.5708 41.6667 43.75C41.6667 42.9292 41.505 42.1165 41.1909 41.3582C40.8768 40.5999 40.4164 39.9109 39.8361 39.3306C39.2557 38.7502 38.5667 38.2898 37.8084 37.9758C37.0501 37.6617 36.2374 37.5 35.4167 37.5C33.7591 37.5 32.1693 38.1585 30.9972 39.3306C29.8251 40.5027 29.1667 42.0924 29.1667 43.75C29.1667 45.4076 29.8251 46.9973 30.9972 48.1694C32.1693 49.3415 33.7591 50 35.4167 50V50ZM35.4167 45.8333C34.8641 45.8333 34.3342 45.6138 33.9435 45.2231C33.5528 44.8324 33.3333 44.3025 33.3333 43.75C33.3333 43.1975 33.5528 42.6676 33.9435 42.2769C34.3342 41.8862 34.8641 41.6667 35.4167 41.6667C35.9692 41.6667 36.4991 41.8862 36.8898 42.2769C37.2805 42.6676 37.5 43.1975 37.5 43.75C37.5 44.3025 37.2805 44.8324 36.8898 45.2231C36.4991 45.6138 35.9692 45.8333 35.4167 45.8333Z" fill="#666666"/>
</svg>
