<svg width="28" height="20" viewBox="0 0 28 20" fill="none" xmlns="http://www.w3.org/2000/svg">
<path d="M1.04522 17.9306H26.5677C26.8297 17.931 27.0818 18.0308 27.2731 18.2099C27.4644 18.389 27.5806 18.634 27.5983 18.8954C27.616 19.1569 27.5338 19.4153 27.3684 19.6185C27.203 19.8217 26.9666 19.9546 26.707 19.9903L26.5677 19.9999H1.04522C0.781196 20.0026 0.526136 19.9043 0.332267 19.725C0.138399 19.5458 0.0203894 19.2992 0.00240476 19.0358C-0.0155799 18.7724 0.0678209 18.512 0.235529 18.3081C0.403237 18.1042 0.642563 17.9721 0.904499 17.9388L1.04522 17.9306H26.5677H1.04522ZM1.04522 8.96735H26.5677C26.8297 8.96778 27.0818 9.06761 27.2731 9.24669C27.4644 9.42577 27.5806 9.67077 27.5983 9.93221C27.616 10.1936 27.5338 10.4521 27.3684 10.6553C27.203 10.8585 26.9666 10.9914 26.707 11.0271L26.5677 11.0367H1.04522C0.781196 11.0394 0.526136 10.9411 0.332267 10.7618C0.138399 10.5826 0.0203894 10.336 0.00240476 10.0726C-0.0155799 9.80915 0.0678209 9.54882 0.235529 9.34489C0.403237 9.14095 0.642563 9.00885 0.904499 8.97563L1.04522 8.96735H26.5677H1.04522ZM1.04384 0H26.5663C26.8284 8.0351e-05 27.0808 0.0996684 27.2724 0.27864C27.4639 0.457612 27.5804 0.702624 27.5983 0.96417C27.6161 1.22571 27.5341 1.48429 27.3686 1.68765C27.2032 1.89101 26.9667 2.024 26.707 2.05973L26.5663 2.06939H1.04384C0.781683 2.06931 0.529332 1.96972 0.337774 1.79075C0.146217 1.61178 0.0297358 1.36676 0.0118673 1.10522C-0.00600116 0.843674 0.0760754 0.585096 0.241512 0.381735C0.406949 0.178374 0.643412 0.0453912 0.90312 0.00965776L1.04384 0H26.5663H1.04384V0Z" fill="#666666"/>
</svg>
