<svg width="23" height="20" viewBox="0 0 23 20" fill="none" xmlns="http://www.w3.org/2000/svg">
<path d="M21.3793 0H0.689655C0.506747 0 0.331331 0.07266 0.201995 0.201995C0.0726599 0.331331 0 0.506747 0 0.689655V1.84138C0.000128953 2.00427 0.0324924 2.16552 0.0952254 2.31584C0.157958 2.46616 0.24982 2.60258 0.365517 2.71724L8.27586 10.7448V17.7793L9.65517 18.3034V10.3448C9.6557 10.2541 9.6383 10.1641 9.60398 10.0801C9.56966 9.99604 9.51909 9.91961 9.45517 9.85517L1.37931 1.78621V1.37931H20.6897V1.8L12.6414 9.85517C12.5725 9.91729 12.5168 9.99266 12.4777 10.0768C12.4386 10.1609 12.4168 10.2521 12.4138 10.3448V19.4552L13.7931 20V10.6897L21.7034 2.75862C21.821 2.64105 21.9139 2.50119 21.9767 2.34723C22.0394 2.19327 22.0708 2.02832 22.069 1.86207V0.689655C22.069 0.506747 21.9963 0.331331 21.867 0.201995C21.7376 0.07266 21.5622 0 21.3793 0V0Z" fill="#666666"/>
</svg>
