<svg width="14" height="16" viewBox="0 0 14 16" fill="none" xmlns="http://www.w3.org/2000/svg">
<path d="M12.5715 16H5.71439C5.41129 16 5.1206 15.8796 4.90627 15.6653C4.69194 15.4509 4.57153 15.1602 4.57153 14.8571V13.1429H5.71439V14.8571H12.5715V1.14286H5.71439V2.85714H4.57153V1.14286C4.57153 0.839753 4.69194 0.549062 4.90627 0.334735C5.1206 0.120408 5.41129 0 5.71439 0H12.5715C12.8746 0 13.1653 0.120408 13.3797 0.334735C13.594 0.549062 13.7144 0.839753 13.7144 1.14286V14.8571C13.7144 15.1602 13.594 15.4509 13.3797 15.6653C13.1653 15.8796 12.8746 16 12.5715 16Z" fill="#666666"/>
<path d="M6.05143 10.6229L8.09714 8.57143H0V7.42857H8.09714L6.05143 5.37714L6.85714 4.57143L10.2857 8L6.85714 11.4286L6.05143 10.6229Z" fill="#666666"/>
</svg>
