<svg width="16" height="16" viewBox="0 0 16 16" fill="none" xmlns="http://www.w3.org/2000/svg">
<path d="M1.82812 8.5H10.4844C10.6302 8.5 10.75 8.45052 10.8438 8.35156C10.9375 8.2526 10.9844 8.13281 10.9844 7.99219C10.9844 7.85156 10.9375 7.73438 10.8438 7.64062C10.75 7.54688 10.6302 7.5 10.4844 7.5H1.85938L3.67188 5.6875C3.76562 5.59375 3.8125 5.47656 3.8125 5.33594C3.8125 5.19531 3.76562 5.07812 3.67188 4.98438C3.59896 4.92188 3.52083 4.8776 3.4375 4.85156C3.35417 4.82552 3.26823 4.82552 3.17969 4.85156C3.09115 4.8776 3.01562 4.92188 2.95312 4.98438L0 8.01562L2.95312 11.0469C3.00521 11.0885 3.0625 11.1224 3.125 11.1484C3.1875 11.1745 3.25 11.1875 3.3125 11.1875C3.44792 11.1875 3.56771 11.1406 3.67188 11.0469C3.70312 11.0156 3.72917 10.9792 3.75 10.9375C3.77083 10.8958 3.78646 10.8542 3.79688 10.8125C3.80729 10.7708 3.8125 10.7292 3.8125 10.6875C3.8125 10.6458 3.80729 10.6042 3.79688 10.5625C3.78646 10.5208 3.77083 10.4792 3.75 10.4375C3.72917 10.3958 3.70312 10.3594 3.67188 10.3281L1.82812 8.5ZM15 0H6.5C6.21875 0 5.98177 0.0963542 5.78906 0.289062C5.59635 0.481771 5.5 0.71875 5.5 1V5.5H6.5V1.60938C6.5 1.50521 6.52604 1.40625 6.57812 1.3125C6.63021 1.21875 6.70312 1.14323 6.79688 1.08594C6.89062 1.02865 6.99479 1 7.10938 1H14.375C14.5417 1 14.6823 1.0599 14.7969 1.17969C14.9115 1.29948 14.9688 1.44271 14.9688 1.60938L14.9844 14.3906C14.9844 14.5573 14.9271 14.7005 14.8125 14.8203C14.6979 14.9401 14.5573 15 14.3906 15H7.10938C6.94271 15 6.79948 14.9401 6.67969 14.8203C6.5599 14.7005 6.5 14.5573 6.5 14.3906V10.4844H5.5V15C5.5 15.2812 5.59635 15.5182 5.78906 15.7109C5.98177 15.9036 6.21875 16 6.5 16H15C15.0625 16 15.1276 15.9922 15.1953 15.9766C15.263 15.9609 15.3255 15.9427 15.3828 15.9219C15.4401 15.901 15.4974 15.8724 15.5547 15.8359C15.612 15.7995 15.6615 15.7578 15.7031 15.7109C15.7448 15.6641 15.7839 15.6146 15.8203 15.5625C15.8568 15.5104 15.888 15.4531 15.9141 15.3906C15.9401 15.3281 15.9609 15.2656 15.9766 15.2031C15.9922 15.1406 16 15.0729 16 15V1C16 0.59375 15.8177 0.296875 15.4531 0.109375C15.3073 0.0364583 15.1562 0 15 0Z" fill="#666666"/>
</svg>
