<svg width="16" height="16" viewBox="0 0 16 16" fill="none" xmlns="http://www.w3.org/2000/svg">
<path d="M11.5339 10.5382C12.0049 10.2852 12.5441 10.1411 13.1183 10.1411H13.1202C13.1786 10.1411 13.2059 10.071 13.1631 10.0321C12.5659 9.49621 11.8838 9.06338 11.1446 8.75134C11.1368 8.74744 11.129 8.7455 11.1212 8.74161C12.33 7.86375 13.1163 6.43698 13.1163 4.82725C13.1163 2.16058 10.9597 0 8.29882 0C5.638 0 3.48325 2.16058 3.48325 4.82725C3.48325 6.43698 4.26963 7.86375 5.48033 8.74161C5.47255 8.7455 5.46476 8.74744 5.45697 8.75134C4.5869 9.11922 3.80637 9.64672 3.13483 10.3202C2.46718 10.9866 1.93564 11.7767 1.56987 12.6462C1.20999 13.4977 1.01577 14.4101 0.997607 15.3343C0.997088 15.3551 1.00073 15.3757 1.00832 15.3951C1.01592 15.4144 1.0273 15.4321 1.04182 15.4469C1.05633 15.4618 1.07367 15.4736 1.09282 15.4817C1.11197 15.4898 1.13254 15.4939 1.15333 15.4939H2.31926C2.40296 15.4939 2.47303 15.4258 2.47498 15.3421C2.51391 13.8394 3.11537 12.4321 4.18009 11.3655C5.27985 10.2618 6.74359 9.6545 8.30077 9.6545C9.40442 9.6545 10.4633 9.9601 11.3762 10.5324C11.3996 10.5471 11.4266 10.5554 11.4542 10.5564C11.4819 10.5574 11.5094 10.5512 11.5339 10.5382V10.5382ZM8.30077 8.17518C7.40929 8.17518 6.57036 7.82676 5.93775 7.19416C5.6265 6.88372 5.37975 6.51476 5.21172 6.10853C5.04368 5.70231 4.95769 5.26685 4.95868 4.82725C4.95868 3.93382 5.3071 3.09294 5.93775 2.46034C6.56841 1.82774 7.40734 1.47932 8.30077 1.47932C9.1942 1.47932 10.0312 1.82774 10.6638 2.46034C10.975 2.77078 11.2218 3.13975 11.3898 3.54597C11.5579 3.95219 11.6439 4.38765 11.6429 4.82725C11.6429 5.72068 11.2944 6.56156 10.6638 7.19416C10.0312 7.82676 9.19225 8.17518 8.30077 8.17518ZM15.4599 12.8078H13.8249V11.1727C13.8249 11.0871 13.7548 11.017 13.6691 11.017H12.5791C12.4935 11.017 12.4234 11.0871 12.4234 11.1727V12.8078H10.7884C10.7027 12.8078 10.6326 12.8779 10.6326 12.9635V14.0535C10.6326 14.1392 10.7027 14.2092 10.7884 14.2092H12.4234V15.8443C12.4234 15.9299 12.4935 16 12.5791 16H13.6691C13.7548 16 13.8249 15.9299 13.8249 15.8443V14.2092H15.4599C15.5455 14.2092 15.6156 14.1392 15.6156 14.0535V12.9635C15.6156 12.8779 15.5455 12.8078 15.4599 12.8078Z" fill="#666666"/>
</svg>
