<svg id="Layer_1" data-name="Layer 1" xmlns="http://www.w3.org/2000/svg" xmlns:xlink="http://www.w3.org/1999/xlink" viewBox="0 0 1000 372"><defs><mask id="mask" x="7" y="300" width="238" height="41" maskUnits="userSpaceOnUse"><circle cx="142.11" cy="320.58" r="18.68" style="fill:#fff"/><circle cx="219.29" cy="320.58" r="18.68" style="fill:#fff"/><rect x="11" y="310" width="81.76" height="8.11" style="fill:#fff"/><rect x="37.78" y="326.57" width="54.98" height="7.4" style="fill:#fff"/></mask><linearGradient id="linear-gradient" x1="7" y1="320.5" x2="245" y2="320.5" gradientUnits="userSpaceOnUse"><stop offset="0" stop-color="#03a9f4"/><stop offset="1" stop-color="#07203a"/></linearGradient><linearGradient id="linear-gradient-2" x1="176.91" y1="198.53" x2="324.43" y2="198.53" xlink:href="#linear-gradient"/><mask id="mask-2" x="510" y="308" width="343" height="64" maskUnits="userSpaceOnUse"><path d="M539.13,330a13.72,13.72,0,0,0-11.87,0,9,9,0,0,0-3.77,3.94,13.76,13.76,0,0,0-1.3,6.21v4.34a14.08,14.08,0,0,0,1.3,6.29,9,9,0,0,0,3.77,4,13.63,13.63,0,0,0,11.87,0,9,9,0,0,0,3.77-3.95,13.68,13.68,0,0,0,1.3-6.23v-4.42a13.63,13.63,0,0,0-1.3-6.21A8.93,8.93,0,0,0,539.13,330ZM539,344.59a7.13,7.13,0,0,1-1.5,4.83,6.12,6.12,0,0,1-8.51,0,7.13,7.13,0,0,1-1.5-4.83v-4.42a7,7,0,0,1,1.5-4.81,6.18,6.18,0,0,1,8.51,0,7,7,0,0,1,1.5,4.81Z" style="fill:#fff"/><path d="M564,328.67a7.82,7.82,0,0,0-4.41,1.32,9.11,9.11,0,0,0-2.68,2.8v-3.73h-5.25v26.69h5.25V338.86a5.13,5.13,0,0,1,1.4-3.84,5.49,5.49,0,0,1,4-1.36,5.41,5.41,0,0,1,4.11,1.54,6.1,6.1,0,0,1,1.47,4.38v16.17h5.24v-16.2q0-5.19-2.37-8A8.28,8.28,0,0,0,564,328.67Z" style="fill:#fff"/><path d="M586.73,350.36a2.35,2.35,0,0,1-.42-1.5V318.37h-5.25V348.8A7.61,7.61,0,0,0,582.7,354a5.8,5.8,0,0,0,4.61,1.85h3.09v-5h-2.47A1.46,1.46,0,0,1,586.73,350.36Z" style="fill:#fff"/><path d="M611.27,329.84a12.67,12.67,0,0,0-5.68-1.17,14.35,14.35,0,0,0-5.51,1,10,10,0,0,0-4,2.84l3.83,2.62a9.44,9.44,0,0,1,2.71-1.36,10.39,10.39,0,0,1,3.13-.49,5.3,5.3,0,0,1,4,1.45,5.66,5.66,0,0,1,1.4,4.08V340h-7.35c-3,0-5.27.66-6.77,2s-2.23,3.3-2.23,5.94.81,4.85,2.44,6.21,4.09,2,7.38,2a11.68,11.68,0,0,0,3-.35,7.28,7.28,0,0,0,2.35-1,6,6,0,0,0,1.17-1.09v2.1h5V338.6a10.92,10.92,0,0,0-1.24-5.36A8.12,8.12,0,0,0,611.27,329.84Zm-1.63,21.38a11.85,11.85,0,0,1-4.49.64,7,7,0,0,1-4.1-1,3.47,3.47,0,0,1-1.35-3,3.56,3.56,0,0,1,1-2.79,4.47,4.47,0,0,1,3.07-.91h7.33v5A2.11,2.11,0,0,1,609.64,351.22Z" style="fill:#fff"/><path d="M632.54,348.05l-6.72-19h-5.35l9.69,26.26-1.28,3.9a4.8,4.8,0,0,1-1.5,2,4.1,4.1,0,0,1-2.33.59h-1v5h1a12,12,0,0,0,3.6-.47,5.51,5.51,0,0,0,2.47-1.53,7.73,7.73,0,0,0,1.62-2.89l11.36-32.93h-5.35Z" style="fill:#fff"/><polygon points="640.84 315.28 637.06 312.14 629.7 321.27 633 323.92 640.84 315.28" style="fill:#fff"/><path d="M661.07,328.67a7.82,7.82,0,0,0-4.41,1.32,9,9,0,0,0-2.69,2.8v-3.73h-5.24v26.69H654V338.86a5.13,5.13,0,0,1,1.4-3.84,5.52,5.52,0,0,1,4-1.36,5.44,5.44,0,0,1,4.11,1.54,6.1,6.1,0,0,1,1.46,4.38v16.17h5.25v-16.2q0-5.19-2.38-8A8.26,8.26,0,0,0,661.07,328.67Z" style="fill:#fff"/><rect x="678.14" y="339.86" width="17.28" height="4.99" style="fill:#fff"/><path d="M719.36,340.5a23.19,23.19,0,0,0-4.77-.75l-.15,0h-.15l-.35,0a1.67,1.67,0,0,1-.32,0c-1.43-.09-2.52-.19-3.29-.31a4.43,4.43,0,0,1-1.92-.72,1.87,1.87,0,0,1-.76-1.62,3.1,3.1,0,0,1,1.34-2.74,7.14,7.14,0,0,1,4-.91,12,12,0,0,1,3.79.64,17.51,17.51,0,0,1,4,1.93l3.16-3.83a17.48,17.48,0,0,0-6.93-3.06,19.58,19.58,0,0,0-4-.39,15.25,15.25,0,0,0-5.73.94,7.06,7.06,0,0,0-3.45,2.82,8.83,8.83,0,0,0-1.15,4.7,6.87,6.87,0,0,0,1.19,4.35,6,6,0,0,0,3,2.07,20.68,20.68,0,0,0,4.39.76h.41l.44,0h.44c1.52.12,2.71.26,3.54.4a4.8,4.8,0,0,1,2.11.86,2.26,2.26,0,0,1,.85,1.93,3.18,3.18,0,0,1-1.55,2.89,9,9,0,0,1-4.67,1,11.68,11.68,0,0,1-4.22-.83,17.5,17.5,0,0,1-4.29-2.46L701.2,352a15.44,15.44,0,0,0,3.32,2.31,16,16,0,0,0,3.86,1.39l2.07.46h2.37a17.63,17.63,0,0,0,6.23-.95,7.4,7.4,0,0,0,3.72-2.84,8.58,8.58,0,0,0,1.23-4.77,7.57,7.57,0,0,0-1.33-4.83A6.48,6.48,0,0,0,719.36,340.5Z" style="fill:#fff"/><rect x="743.72" y="318.37" width="5.24" height="5.24" style="fill:#fff"/><rect x="732.92" y="318.37" width="5.25" height="5.24" style="fill:#fff"/><path d="M746.86,330A13.74,13.74,0,0,0,735,330a9,9,0,0,0-3.77,3.94,13.76,13.76,0,0,0-1.29,6.21v4.34a14.08,14.08,0,0,0,1.29,6.29,9,9,0,0,0,3.77,4,13.65,13.65,0,0,0,11.88,0,9,9,0,0,0,3.76-3.95,13.68,13.68,0,0,0,1.3-6.23v-4.42a13.63,13.63,0,0,0-1.3-6.21A9,9,0,0,0,746.86,330Zm-.18,14.57a7.08,7.08,0,0,1-1.51,4.83,6.12,6.12,0,0,1-8.51,0,7.13,7.13,0,0,1-1.5-4.83v-4.42a7,7,0,0,1,1.5-4.81,6.18,6.18,0,0,1,8.51,0,7,7,0,0,1,1.51,4.81Z" style="fill:#fff"/><polygon points="783.21 348.11 776.55 329.06 772.9 329.06 766.24 348.11 761.51 329.06 756.03 329.06 764.26 355.75 768.22 355.75 774.73 337.31 781.23 355.75 785.19 355.75 793.41 329.06 787.94 329.06 783.21 348.11" style="fill:#fff"/><path d="M813.72,332.43a8.69,8.69,0,0,0-2.63-2.6,8,8,0,0,0-4.33-1.23,8.9,8.9,0,0,0-4.85,1.27,8,8,0,0,0-3.07,3.71,14.91,14.91,0,0,0-1.05,5.89v5.89a14.43,14.43,0,0,0,1.08,5.86,8,8,0,0,0,3.14,3.72,9.45,9.45,0,0,0,5,1.27,7.29,7.29,0,0,0,4.46-1.34,7.56,7.56,0,0,0,2.25-2.58v3.46H819V318.37h-5.25Zm-.61,16.45a4.36,4.36,0,0,1-1.79,1.89,5.71,5.71,0,0,1-2.84.66,5.15,5.15,0,0,1-4-1.58,6.49,6.49,0,0,1-1.43-4.49v-5.81a6.67,6.67,0,0,1,1.43-4.55,5.07,5.07,0,0,1,4-1.62,5.93,5.93,0,0,1,2.84.63,4.19,4.19,0,0,1,1.79,1.84,6.31,6.31,0,0,1,.61,2.9v7.18A6.55,6.55,0,0,1,813.11,348.88Z" style="fill:#fff"/><path d="M845.76,333.24a8.23,8.23,0,0,0-3.6-3.4,12.7,12.7,0,0,0-5.68-1.17,14.4,14.4,0,0,0-5.52,1,10.11,10.11,0,0,0-4,2.84l3.83,2.62a9.5,9.5,0,0,1,2.72-1.36,10.38,10.38,0,0,1,3.12-.49,5.29,5.29,0,0,1,4,1.45,5.62,5.62,0,0,1,1.4,4.08V340h-7.35q-4.53,0-6.76,2t-2.24,5.94q0,4.17,2.45,6.21t7.37,2a11.57,11.57,0,0,0,3-.35,7.19,7.19,0,0,0,2.35-1,5.76,5.76,0,0,0,1.17-1.09v2.1h5V338.6A10.92,10.92,0,0,0,845.76,333.24Zm-5.23,18a11.89,11.89,0,0,1-4.49.64,7,7,0,0,1-4.1-1,3.47,3.47,0,0,1-1.35-3,3.59,3.59,0,0,1,1-2.79,4.5,4.5,0,0,1,3.08-.91H842v5A2.12,2.12,0,0,1,840.53,351.22Z" style="fill:#fff"/></mask><linearGradient id="linear-gradient-3" x1="510" y1="340" x2="853" y2="340" xlink:href="#linear-gradient"/></defs><title>Logo isleg</title><path d="M421.63,294.39c-1.19,0-2.4,0-3.64-.06H334.11l5.22-21.17h76.14c1.12.08,2.22.12,3.27.12,13,0,22.3-6.41,25.53-17.58l.42-1.48.05-1.54a20.38,20.38,0,0,0-5.61-15.3c-4.5-4.65-11.19-7-19.86-7-1,0-2,0-3,.09H392.41c-13.13-.28-22.67-4.16-29.15-11.86s-8.28-18.31-5.72-32.73c7.56-24.15,24.68-35.41,53.8-35.41,2.26,0,4.63.07,7,.22l.36,0h76.43L490.41,170H411.09l-1.45,0c-11.8,0-20.4,6.62-22.43,17.26l-.1.49-.05.49c-1,9.48,3.54,17.45,11.93,20.8a39.85,39.85,0,0,0,14.93,2.47c1.24,0,2.54,0,3.88-.11l21.13-.65c15.7.57,25.82,4.43,30.09,11.47,5,8.17,6.25,19.9,3.73,34.92C467.44,282.55,451.19,294.39,421.63,294.39Z" style="fill:#07203a"/><path d="M552.14,294.32c-11.38,0-19.77-4-26.41-12.48s-8.89-18.33-6.8-29.87L559.47,95.41h29.37L550.17,247.06l-.09.8a22.2,22.2,0,0,0,4.35,16.25l.22.29a20.91,20.91,0,0,0,16.69,7.92H585.4l-5.56,22Z" style="fill:#07203a"/><path d="M685,293.66c-13.33-.86-23.22-3.65-29.39-8.3-6.45-4.84-11.22-11.34-14.59-19.87-7.92-19.75-6.1-42,5.57-68,15.6-29.12,40.39-44.36,75.76-46.61h54c8.6.6,19.47,2.65,23.31,9,3.64,6,4.43,12.38,2.46,20.16l-.07.29-.34,1.7L789.27,232.6h-84.8v-.11c-.11-4.83,1.5-9.78,4.93-15.12a13.67,13.67,0,0,1,11-6.61h45.88l9.6-38.4H725.49c-15.93.53-29.22,5.2-39.48,13.87a57.27,57.27,0,0,0-20.09,30.09l0,.19c-4.49,17.75-3.14,31.1,4.14,40.8,6.35,8.47,16.49,13,30.14,13.5h80l-5.66,23.43Z" style="fill:#07203a"/><path d="M875.6,355.22l4.67-21.67H898.5a29.19,29.19,0,0,0,16.14-5.15l.21-.14.21-.14a27.89,27.89,0,0,0,10.57-13.57l.25-.71,4.29-20-51.58-.47c-13.33-.86-23.22-3.65-29.4-8.3-6.45-4.84-11.22-11.34-14.6-19.87-7.91-19.75-6.09-42,5.58-68,15.6-29.11,40.39-44.36,75.76-46.6H993L987.82,172H919.11c-15.93.53-29.22,5.2-39.48,13.87a57.22,57.22,0,0,0-20.06,30c-5.2,17.89-4.21,31.36,3,41.17,6.44,8.71,17,13.24,31.42,13.45h42.22L951,210.43h27.62l-15.52,64.22-8.42,32.85c-3.16,12.72-10.44,23.65-22.28,33.51-11.59,9.55-23.12,14.21-35.19,14.21Z" style="fill:#07203a"/><path d="M148.42,285.93a37.38,37.38,0,0,1-35.06-50.34l55.4-149.84H103.18L114.93,62h71.18a11.73,11.73,0,0,1,11,15.76L142.32,227.89a25.54,25.54,0,0,0,24,34.3h92.13l9.18,23.74Z" style="fill:#07203a"/><circle cx="200.33" cy="24.97" r="18.68" style="fill:#07203a"/><g style="mask:url(#mask)"><rect x="7" y="300" width="238" height="41" style="fill:url(#linear-gradient)"/></g><path d="M280.76,234.41H176.91l8.1-21.15h87.32a7.36,7.36,0,0,0,6.09-3.23l20-29.57a2,2,0,0,0-1.66-3.15H196.2L200.61,163l110.67-.32a13.09,13.09,0,0,1,10.88,20.42l-31,45.79A12.61,12.61,0,0,1,280.76,234.41Z" style="fill:url(#linear-gradient-2)"/><g style="mask:url(#mask-2)"><rect x="510" y="308" width="343" height="64" style="fill:url(#linear-gradient-3)"/></g></svg>