<svg id="Layer_1" data-name="Layer 1" xmlns="http://www.w3.org/2000/svg" xmlns:xlink="http://www.w3.org/1999/xlink" viewBox="0 0 350 350"><defs><mask id="mask" x="16.29" y="301.36" width="238" height="41" maskUnits="userSpaceOnUse"><circle cx="151.39" cy="321.93" r="18.68" style="fill:#fff"/><circle cx="228.57" cy="321.93" r="18.68" style="fill:#fff"/><rect x="20.29" y="311.36" width="81.76" height="8.11" style="fill:#fff"/><rect x="47.07" y="327.93" width="54.98" height="7.4" style="fill:#fff"/></mask><linearGradient id="linear-gradient" x1="16.29" y1="321.86" x2="254.29" y2="321.86" gradientUnits="userSpaceOnUse"><stop offset="0" stop-color="#03a9f4"/><stop offset="1" stop-color="#07203a"/></linearGradient><linearGradient id="linear-gradient-2" x1="186.19" y1="199.89" x2="333.71" y2="199.89" xlink:href="#linear-gradient"/></defs><title>Logo isleg</title><path d="M157.71,287.28a37.38,37.38,0,0,1-35.06-50.34L178.05,87.1H112.47l11.75-23.74H195.4a11.74,11.74,0,0,1,11,15.75L151.61,229.25a25.53,25.53,0,0,0,24,34.29h92.13l9.18,23.74Z" style="fill:#07203a"/><circle cx="209.62" cy="26.32" r="18.68" style="fill:#07203a"/><g style="mask:url(#mask)"><rect x="16.29" y="301.36" width="238" height="41" style="fill:url(#linear-gradient)"/></g><path d="M290.05,235.76H186.19l8.11-21.14h87.31a7.33,7.33,0,0,0,6.09-3.24l20-29.57a2,2,0,0,0-1.67-3.14H205.49l4.41-14.34L320.56,164a13.09,13.09,0,0,1,10.89,20.42L300.5,230.22A12.61,12.61,0,0,1,290.05,235.76Z" style="fill:url(#linear-gradient-2)"/></svg>