<svg width="384" height="99" viewBox="0 0 384 99" fill="none" xmlns="http://www.w3.org/2000/svg">
<path d="M152.46 33.132V67.683H145.53V45.21L136.273 67.683H131.026L121.72 45.21V67.683H114.79V33.132H122.661L133.65 58.8225L144.639 33.132H152.46Z" fill="#071A52"/>
<path d="M185.2 40.26V67.683H178.22V64.218C177.329 65.406 176.158 66.3465 174.706 67.0395C173.287 67.6995 171.736 68.0295 170.053 68.0295C167.908 68.0295 166.01 67.584 164.36 66.693C162.71 65.769 161.407 64.4325 160.45 62.6835C159.526 60.9015 159.064 58.7895 159.064 56.3475V40.26H165.994V55.3575C165.994 57.5355 166.538 59.2185 167.627 60.4065C168.716 61.5615 170.201 62.139 172.082 62.139C173.996 62.139 175.498 61.5615 176.587 60.4065C177.676 59.2185 178.22 57.5355 178.22 55.3575V40.26H185.2Z" fill="#071A52"/>
<path d="M198.967 31.053V67.683H192.037V31.053H198.967Z" fill="#071A52"/>
<path d="M213.883 45.9525V59.2185C213.883 60.1425 214.097 60.819 214.526 61.248C214.988 61.644 215.747 61.842 216.803 61.842H220.021V67.683H215.665C209.824 67.683 206.903 64.845 206.903 59.169V45.9525H203.636V40.26H206.903V33.4785H213.883V40.26H220.021V45.9525H213.883Z" fill="#071A52"/>
<path d="M228.52 36.993C227.299 36.993 226.276 36.6135 225.451 35.8545C224.659 35.0625 224.263 34.089 224.263 32.934C224.263 31.779 224.659 30.822 225.451 30.063C226.276 29.271 227.299 28.875 228.52 28.875C229.741 28.875 230.747 29.271 231.539 30.063C232.364 30.822 232.777 31.779 232.777 32.934C232.777 34.089 232.364 35.0625 231.539 35.8545C230.747 36.6135 229.741 36.993 228.52 36.993ZM231.935 40.26V67.683H225.005V40.26H231.935Z" fill="#071A52"/>
<path d="M258.384 49.962C260.331 50.325 261.932 51.2985 263.186 52.8825C264.44 54.4665 265.067 56.2815 265.067 58.3275C265.067 60.1755 264.605 61.809 263.681 63.228C262.79 64.614 261.486 65.703 259.77 66.495C258.054 67.287 256.025 67.683 253.682 67.683H238.782V33.132H253.038C255.381 33.132 257.394 33.5115 259.077 34.2705C260.793 35.0295 262.08 36.0855 262.938 37.4385C263.829 38.7915 264.275 40.326 264.275 42.042C264.275 44.055 263.73 45.738 262.641 47.091C261.585 48.444 260.166 49.401 258.384 49.962ZM245.712 47.388H252.048C253.698 47.388 254.969 47.025 255.86 46.299C256.751 45.54 257.196 44.4675 257.196 43.0815C257.196 41.6955 256.751 40.623 255.86 39.864C254.969 39.105 253.698 38.7255 252.048 38.7255H245.712V47.388ZM252.692 62.04C254.375 62.04 255.678 61.644 256.602 60.852C257.559 60.06 258.038 58.938 258.038 57.486C258.038 56.001 257.543 54.846 256.553 54.021C255.563 53.163 254.226 52.734 252.543 52.734H245.712V62.04H252.692Z" fill="#071A52"/>
<path d="M277.52 44.517C278.411 43.065 279.566 41.9265 280.985 41.1015C282.437 40.2765 284.087 39.864 285.935 39.864V47.1405H284.103C281.925 47.1405 280.275 47.652 279.153 48.675C278.064 49.698 277.52 51.48 277.52 54.021V67.683H270.59V40.26H277.52V44.517Z" fill="#071A52"/>
<path d="M288.82 53.8725C288.82 51.1005 289.365 48.642 290.454 46.497C291.576 44.352 293.077 42.702 294.958 41.547C296.872 40.392 299.001 39.8145 301.344 39.8145C303.39 39.8145 305.172 40.227 306.69 41.052C308.241 41.877 309.478 42.9165 310.402 44.1705V40.26H317.382V67.683H310.402V63.6735C309.511 64.9605 308.274 66.033 306.69 66.891C305.139 67.716 303.34 68.1285 301.294 68.1285C298.984 68.1285 296.872 67.5345 294.958 66.3465C293.077 65.1585 291.576 63.492 290.454 61.347C289.365 59.169 288.82 56.6775 288.82 53.8725ZM310.402 53.9715C310.402 52.2885 310.072 50.853 309.412 49.665C308.752 48.444 307.861 47.52 306.739 46.893C305.617 46.233 304.413 45.903 303.126 45.903C301.839 45.903 300.651 46.2165 299.562 46.8435C298.473 47.4705 297.582 48.3945 296.889 49.6155C296.229 50.8035 295.899 52.2225 295.899 53.8725C295.899 55.5225 296.229 56.9745 296.889 58.2285C297.582 59.4495 298.473 60.39 299.562 61.05C300.684 61.71 301.872 62.04 303.126 62.04C304.413 62.04 305.617 61.7265 306.739 61.0995C307.861 60.4395 308.752 59.5155 309.412 58.3275C310.072 57.1065 310.402 55.6545 310.402 53.9715Z" fill="#071A52"/>
<path d="M339.347 39.864C342.614 39.864 345.254 40.9035 347.267 42.9825C349.28 45.0285 350.286 47.8995 350.286 51.5955V67.683H343.356V52.536C343.356 50.358 342.812 48.6915 341.723 47.5365C340.634 46.3485 339.149 45.7545 337.268 45.7545C335.354 45.7545 333.836 46.3485 332.714 47.5365C331.625 48.6915 331.08 50.358 331.08 52.536V67.683H324.15V40.26H331.08V43.6755C332.004 42.4875 333.176 41.5635 334.595 40.9035C336.047 40.2105 337.631 39.864 339.347 39.864Z" fill="#071A52"/>
<path d="M355.094 53.8725C355.094 51.1005 355.639 48.642 356.728 46.497C357.85 44.352 359.368 42.702 361.282 41.547C363.196 40.392 365.324 39.8145 367.667 39.8145C369.449 39.8145 371.149 40.2105 372.766 41.0025C374.383 41.7615 375.67 42.7845 376.627 44.0715V31.053H383.656V67.683H376.627V63.624C375.769 64.977 374.564 66.066 373.013 66.891C371.462 67.716 369.664 68.1285 367.618 68.1285C365.308 68.1285 363.196 67.5345 361.282 66.3465C359.368 65.1585 357.85 63.492 356.728 61.347C355.639 59.169 355.094 56.6775 355.094 53.8725ZM376.676 53.9715C376.676 52.2885 376.346 50.853 375.686 49.665C375.026 48.444 374.135 47.52 373.013 46.893C371.891 46.233 370.687 45.903 369.4 45.903C368.113 45.903 366.925 46.2165 365.836 46.8435C364.747 47.4705 363.856 48.3945 363.163 49.6155C362.503 50.8035 362.173 52.2225 362.173 53.8725C362.173 55.5225 362.503 56.9745 363.163 58.2285C363.856 59.4495 364.747 60.39 365.836 61.05C366.958 61.71 368.146 62.04 369.4 62.04C370.687 62.04 371.891 61.7265 373.013 61.0995C374.135 60.4395 375.026 59.5155 375.686 58.3275C376.346 57.1065 376.676 55.6545 376.676 53.9715Z" fill="#071A52"/>
<path fill-rule="evenodd" clip-rule="evenodd" d="M41.2499 12.375C41.2499 10.0968 43.0968 8.25 45.3749 8.25H53.6249C55.9031 8.25 57.7499 10.0968 57.7499 12.375V20.625C57.7499 22.9032 55.9031 24.75 53.6249 24.75H45.3749C43.0968 24.75 41.2499 22.9032 41.2499 20.625V12.375ZM18.0476 23.3808C19.1044 23.0977 20.2303 23.2459 21.1777 23.7929L28.3222 27.9179C30.2952 29.057 30.9711 31.5799 29.832 33.5528L25.707 40.6973C25.16 41.6447 24.259 42.3361 23.2023 42.6192C22.1455 42.9023 21.0196 42.7541 20.0721 42.2071L12.9276 38.0821C10.9547 36.943 10.2787 34.4201 11.4179 32.4472L15.5429 25.3027C16.0899 24.3553 16.9909 23.6639 18.0476 23.3808ZM80.9523 23.3808C82.009 23.6639 82.91 24.3553 83.457 25.3027L87.582 32.4472C88.7211 34.4201 88.0452 36.943 86.0722 38.0821L78.9277 42.2071C77.9803 42.7541 76.8544 42.9023 75.7976 42.6192C74.7409 42.3361 73.8399 41.6447 73.2929 40.6973L69.1679 33.5528C68.0288 31.5799 68.7047 29.057 70.6776 27.9179L77.8221 23.7929C78.7696 23.2459 79.8955 23.0977 80.9523 23.3808ZM41.2499 45.375C41.2499 43.0968 43.0968 41.25 45.3749 41.25H53.6249C55.9031 41.25 57.7499 43.0968 57.7499 45.375V53.625C57.7499 55.9032 55.9031 57.75 53.6249 57.75H45.3749C43.0968 57.75 41.2499 55.9032 41.2499 53.625V45.375ZM20.0721 56.7929C22.0451 55.6538 24.5679 56.3298 25.707 58.3027L29.832 65.4472C30.379 66.3946 30.5273 67.5206 30.2441 68.5773C29.961 69.6341 29.2697 70.5351 28.3222 71.0821L21.1777 75.2071C19.2048 76.3462 16.682 75.6702 15.5429 73.6973L11.4179 66.5528C10.8708 65.6054 10.7226 64.4794 11.0057 63.4227C11.2889 62.3659 11.9802 61.4649 12.9276 60.9179L20.0721 56.7929ZM75.7976 56.3808C76.8544 56.0977 77.9803 56.2459 78.9277 56.7929L86.0722 60.9179C88.0452 62.057 88.7211 64.5799 87.582 66.5528L83.457 73.6973C82.91 74.6447 82.009 75.3361 80.9523 75.6192C79.8955 75.9023 78.7696 75.7541 77.8221 75.2071L70.6776 71.0821C68.7047 69.943 68.0288 67.4201 69.1679 65.4472L73.2929 58.3027C73.8399 57.3553 74.7409 56.6639 75.7976 56.3808ZM41.2499 78.375C41.2499 76.0968 43.0968 74.25 45.3749 74.25H53.6249C55.9031 74.25 57.7499 76.0968 57.7499 78.375V86.625C57.7499 88.9032 55.9031 90.75 53.6249 90.75H45.3749C43.0968 90.75 41.2499 88.9032 41.2499 86.625V78.375Z" fill="#071A52"/>
</svg>
